<mxfile host="app.diagrams.net" modified="2021-03-05T19:32:15.794Z" agent="5.0 (Windows NT 10.0; Win64; x64) AppleWebKit/537.36 (KHTML, like Gecko) Chrome/89.0.4389.72 Safari/537.36" etag="WrpKgx-SPp6bTyCeV8BP" version="14.4.4" type="github">
  <diagram id="BaAd8qnuqPxdzigUYkmS" name="Page-1">
    <mxGraphModel dx="782" dy="437" grid="1" gridSize="10" guides="1" tooltips="1" connect="1" arrows="1" fold="1" page="1" pageScale="1" pageWidth="827" pageHeight="1169" math="0" shadow="0">
      <root>
        <mxCell id="0" />
        <mxCell id="1" parent="0" />
        <mxCell id="mgyhQe0wOStJfl29Jr7m-1" value="opt" style="shape=umlFrame;whiteSpace=wrap;html=1;" parent="1" vertex="1">
          <mxGeometry x="390" y="570" width="350" height="70" as="geometry" />
        </mxCell>
        <mxCell id="VGAZBNyqSztdIwJ0QUs4-37" value="opt" style="shape=umlFrame;whiteSpace=wrap;html=1;" parent="1" vertex="1">
          <mxGeometry x="100" y="540" width="690" height="150" as="geometry" />
        </mxCell>
        <mxCell id="VGAZBNyqSztdIwJ0QUs4-1" value="h: Hajo" style="shape=umlLifeline;perimeter=lifelinePerimeter;whiteSpace=wrap;html=1;container=1;collapsible=0;recursiveResize=0;outlineConnect=0;" parent="1" vertex="1">
          <mxGeometry x="200" y="310" width="100" height="450" as="geometry" />
        </mxCell>
        <mxCell id="VGAZBNyqSztdIwJ0QUs4-3" value="" style="html=1;points=[];perimeter=orthogonalPerimeter;" parent="VGAZBNyqSztdIwJ0QUs4-1" vertex="1">
          <mxGeometry x="45" y="60" width="10" height="350" as="geometry" />
        </mxCell>
        <mxCell id="VGAZBNyqSztdIwJ0QUs4-4" value="1. Fur()" style="html=1;verticalAlign=bottom;endArrow=block;entryX=0;entryY=0;" parent="VGAZBNyqSztdIwJ0QUs4-1" target="VGAZBNyqSztdIwJ0QUs4-3" edge="1">
          <mxGeometry relative="1" as="geometry">
            <mxPoint x="-70" y="60" as="sourcePoint" />
          </mxGeometry>
        </mxCell>
        <mxCell id="VGAZBNyqSztdIwJ0QUs4-2" value="a: Aszteroida" style="shape=umlLifeline;perimeter=lifelinePerimeter;whiteSpace=wrap;html=1;container=1;collapsible=0;recursiveResize=0;outlineConnect=0;" parent="1" vertex="1">
          <mxGeometry x="460" y="310" width="100" height="450" as="geometry" />
        </mxCell>
        <mxCell id="VGAZBNyqSztdIwJ0QUs4-34" value="" style="html=1;points=[];perimeter=orthogonalPerimeter;" parent="VGAZBNyqSztdIwJ0QUs4-2" vertex="1">
          <mxGeometry x="45" y="250" width="10" height="100" as="geometry" />
        </mxCell>
        <mxCell id="Sreo9v6_qLGOxP1sX1zR-2" value="" style="html=1;points=[];perimeter=orthogonalPerimeter;" parent="VGAZBNyqSztdIwJ0QUs4-2" vertex="1">
          <mxGeometry x="45" y="90" width="10" height="80" as="geometry" />
        </mxCell>
        <mxCell id="VGAZBNyqSztdIwJ0QUs4-35" value="3. Fur()" style="html=1;verticalAlign=bottom;endArrow=block;entryX=0;entryY=0;" parent="1" target="VGAZBNyqSztdIwJ0QUs4-34" edge="1">
          <mxGeometry relative="1" as="geometry">
            <mxPoint x="255" y="560" as="sourcePoint" />
          </mxGeometry>
        </mxCell>
        <mxCell id="VGAZBNyqSztdIwJ0QUs4-36" value="" style="html=1;verticalAlign=bottom;endArrow=open;dashed=1;endSize=8;exitX=0;exitY=0.95;" parent="1" source="VGAZBNyqSztdIwJ0QUs4-34" edge="1">
          <mxGeometry x="0.0222" y="54" relative="1" as="geometry">
            <mxPoint x="250" y="656" as="targetPoint" />
            <mxPoint as="offset" />
          </mxGeometry>
        </mxCell>
        <mxCell id="VGAZBNyqSztdIwJ0QUs4-40" value="[kereg != 0]" style="text;html=1;strokeColor=none;fillColor=none;align=center;verticalAlign=middle;whiteSpace=wrap;rounded=0;" parent="1" vertex="1">
          <mxGeometry x="120" y="605" width="100" height="20" as="geometry" />
        </mxCell>
        <mxCell id="3axIb1djayuMP6Ug5s31-1" value="ny: Nyersanyag" style="shape=umlLifeline;perimeter=lifelinePerimeter;whiteSpace=wrap;html=1;container=1;collapsible=0;recursiveResize=0;outlineConnect=0;" parent="1" vertex="1">
          <mxGeometry x="660" y="310" width="100" height="450" as="geometry" />
        </mxCell>
        <mxCell id="3axIb1djayuMP6Ug5s31-2" value="" style="html=1;points=[];perimeter=orthogonalPerimeter;" parent="3axIb1djayuMP6Ug5s31-1" vertex="1">
          <mxGeometry x="45" y="280" width="10" height="40" as="geometry" />
        </mxCell>
        <mxCell id="3axIb1djayuMP6Ug5s31-3" value="4. Megfurva(a: Aszteroida)" style="html=1;verticalAlign=bottom;endArrow=block;entryX=0;entryY=0;" parent="1" target="3axIb1djayuMP6Ug5s31-2" edge="1">
          <mxGeometry relative="1" as="geometry">
            <mxPoint x="509.5" y="590" as="sourcePoint" />
          </mxGeometry>
        </mxCell>
        <mxCell id="3axIb1djayuMP6Ug5s31-4" value="" style="html=1;verticalAlign=bottom;endArrow=open;dashed=1;endSize=8;exitX=0;exitY=0.95;" parent="1" source="3axIb1djayuMP6Ug5s31-2" edge="1">
          <mxGeometry x="-0.093" y="52" relative="1" as="geometry">
            <mxPoint x="510" y="627" as="targetPoint" />
            <mxPoint as="offset" />
          </mxGeometry>
        </mxCell>
        <mxCell id="mgyhQe0wOStJfl29Jr7m-2" value="[kulsoRetegek==0 &amp;amp;&amp;amp; napkozelben]" style="text;html=1;strokeColor=none;fillColor=none;align=center;verticalAlign=middle;whiteSpace=wrap;rounded=0;" parent="1" vertex="1">
          <mxGeometry x="425" y="615" width="40" height="10" as="geometry" />
        </mxCell>
        <mxCell id="VGAZBNyqSztdIwJ0QUs4-5" value="" style="html=1;verticalAlign=bottom;endArrow=open;dashed=1;endSize=8;" parent="1" edge="1">
          <mxGeometry x="0.2362" y="77" relative="1" as="geometry">
            <mxPoint x="120" y="710" as="targetPoint" />
            <mxPoint as="offset" />
            <mxPoint x="244" y="710" as="sourcePoint" />
            <Array as="points" />
          </mxGeometry>
        </mxCell>
        <mxCell id="Sreo9v6_qLGOxP1sX1zR-3" value="2. getKulsoRetegek()" style="html=1;verticalAlign=bottom;endArrow=block;entryX=0;entryY=0;" parent="1" source="VGAZBNyqSztdIwJ0QUs4-1" target="Sreo9v6_qLGOxP1sX1zR-2" edge="1">
          <mxGeometry relative="1" as="geometry">
            <mxPoint x="435" y="400" as="sourcePoint" />
          </mxGeometry>
        </mxCell>
        <mxCell id="Sreo9v6_qLGOxP1sX1zR-4" value="kereg:int" style="html=1;verticalAlign=bottom;endArrow=open;dashed=1;endSize=8;exitX=0;exitY=0.95;entryX=0.5;entryY=0.303;entryDx=0;entryDy=0;entryPerimeter=0;" parent="1" source="Sreo9v6_qLGOxP1sX1zR-2" target="VGAZBNyqSztdIwJ0QUs4-3" edge="1">
          <mxGeometry relative="1" as="geometry">
            <mxPoint x="435" y="476" as="targetPoint" />
          </mxGeometry>
        </mxCell>
      </root>
    </mxGraphModel>
  </diagram>
</mxfile>
